
        <svg xmlns="http://www.w3.org/2000/svg" xmlns:xlink="http://www.w3.org/1999/xlink" version="1.1" width="3188.087774294671" height="1899.6865203761756" viewBox="0 0 3188.087774294671 1899.6865203761756">
			
			<g transform="scale(9.404388714733543) translate(10, 10)">
				<defs id="SvgjsDefs1330"/><g id="SvgjsG1331" featureKey="symbolFeature-0" transform="matrix(0.5624209529991644,0,0,0.5624209529991644,-4.499367623993315,55)" fill="#fff"><title xmlns="http://www.w3.org/2000/svg">solid</title><path xmlns="http://www.w3.org/2000/svg" d="M114.47,46.67h-7.92a43.35,43.35,0,0,0-5.87-14.14l5.61-5.61c2.16-2.16,1.94-5.88-.49-8.31l-4.4-4.4a6.58,6.58,0,0,0-4.61-2,5.18,5.18,0,0,0-3.71,1.49l-5.61,5.61a43.31,43.31,0,0,0-14.15-5.86V5.53C73.33,2.47,70.55,0,67.11,0H60.9c-3.44,0-6.23,2.47-6.23,5.53v7.93a43.29,43.29,0,0,0-14.14,5.86l-5.61-5.61a5.18,5.18,0,0,0-3.71-1.49,6.59,6.59,0,0,0-4.61,2L22.2,18.6c-2.44,2.43-2.65,6.15-.5,8.31l5.62,5.61a43.33,43.33,0,0,0-5.86,14.14H13.53C10.47,46.67,8,49.45,8,52.89v6.21c0,3.44,2.47,6.23,5.53,6.23h7.93a43.4,43.4,0,0,0,5.86,14.14l-5.62,5.61c-2.16,2.16-1.94,5.88.5,8.31l.33.33a39.5,39.5,0,0,1,3.64-2L25,90.57a2,2,0,0,1-.5-2.65L32.43,80l-1.73-2.71a39.34,39.34,0,0,1-5.32-12.84l-.69-3.15H13.53c-.72,0-1.53-.91-1.53-2.23V52.89c0-1.31.81-2.23,1.53-2.23H24.68l.69-3.15a39.24,39.24,0,0,1,5.32-12.84L32.43,32l-7.89-7.88a1.27,1.27,0,0,1-.31-1A2.64,2.64,0,0,1,25,21.43L29.42,17a2.59,2.59,0,0,1,1.78-.81,1.19,1.19,0,0,1,.88.32L40,24.43l2.71-1.74a39.21,39.21,0,0,1,12.84-5.32l3.15-.69V5.53c0-.72.92-1.53,2.23-1.53h6.21c1.31,0,2.23.81,2.23,1.53V16.68l3.15.69a39.23,39.23,0,0,1,12.84,5.32L88,24.42l7.88-7.88a1.19,1.19,0,0,1,.88-.32,2.59,2.59,0,0,1,1.78.81l4.4,4.4a2,2,0,0,1,.49,2.66L95.57,32l1.74,2.71a39.24,39.24,0,0,1,5.33,12.84l.69,3.15h11.14c.73,0,1.53.91,1.53,2.23v6.21c0,1.31-.81,2.23-1.53,2.23H103.32l-.69,3.15a39.35,39.35,0,0,1-5.33,12.84L95.57,80l7.89,7.88a2,2,0,0,1-.49,2.66l-1.27,1.27a39,39,0,0,1,3.61,2l.49-.49c2.43-2.44,2.65-6.15.49-8.31l-5.61-5.61a43.41,43.41,0,0,0,5.87-14.14h7.92c3.05,0,5.53-2.79,5.53-6.23V52.89C120,49.45,117.52,46.67,114.47,46.67Z"/><path xmlns="http://www.w3.org/2000/svg" d="M68.68,95.36a19.53,19.53,0,0,1-4,.6l1.53,6.83-5.34,3.74L63.34,96a20.58,20.58,0,0,1-4-.46L54.15,118a4.5,4.5,0,0,0,1.77,4.71l4,4.2a2,2,0,0,0,.37.31,7.3,7.3,0,0,0,3.66.79,7.68,7.68,0,0,0,3.34-.62,2,2,0,0,0,.4-.29l4.21-3.91a4.36,4.36,0,0,0,2-4.66ZM58.16,118.41l1.4-6.06L67.19,107l.94,4.19a2,2,0,0,0-.31.18Zm11.54,1.4a2,2,0,0,0-.4.29L65.2,123.9a8,8,0,0,1-2.67,0l-2.08-2.2,8.63-6.28.91,4v0A.7.7,0,0,1,69.69,119.81Z"/><path xmlns="http://www.w3.org/2000/svg" d="M47.19,88.17c-.3-.36-.6-.73-.89-1.1a10.93,10.93,0,0,1-6.85,4.47c-1,.15-24.09,3.92-25.28,21.83,0,0,0,.08,0,.12s0,1-.16,12.29a2,2,0,0,0,2,2,2,2,0,0,0,2-2c.14-10,.16-11.92.16-12.26,1-14.66,21.69-18.06,21.93-18.09A14.62,14.62,0,0,0,49,90.08,23.32,23.32,0,0,1,47.19,88.17Z"/><path xmlns="http://www.w3.org/2000/svg" d="M88.19,91.55a11.2,11.2,0,0,1-7.2-5,36.44,36.44,0,0,1-2.76,3,14.84,14.84,0,0,0,9.32,5.86c.21,0,20.92,3.4,21.9,18.14a2.36,2.36,0,0,0,0,.26s.52,2.79.52,12.1a2,2,0,0,0,4,0c0-8.81-.44-12-.57-12.74C112.14,95.45,89.14,91.69,88.19,91.55Z"/><path xmlns="http://www.w3.org/2000/svg" d="M88,67.92c1.84,0,3.18-.62,3-2.37l-.27-6.39c-.19-1.73-.07-3.17-1.53-3.17H87.89s1.52-10.84-10.66-19.18c0,0-2.1-5.26-6.09-5.81H56.86c-4,.54-6.09,5.81-6.09,5.81C38.58,45.15,40.1,56,40.1,56H38.87c-1.52,0-1.39,1.42-1.58,3.17L37,65.54c-.19,1.75,1.15,2.37,3,2.37h1.83a41.19,41.19,0,0,0,8.39,17.65A17.87,17.87,0,0,0,63.69,92a15.48,15.48,0,0,0,10.08-3.7c6-5,10.07-12.8,12.17-20.38ZM67,35l-1,5H62.07l-1-5ZM66,53a2,2,0,1,1-2-2A2,2,0,0,1,66,53Zm5.19,32.24A11.51,11.51,0,0,1,63.69,88a13.8,13.8,0,0,1-10.42-5,36.66,36.66,0,0,1-7-13.69L50,71H78l3.28-1.52C79,76,75.45,81.65,71.19,85.24ZM83.78,63.92,77.11,67H50.89l-6.66-3.08H41.09L41.26,60H44.7l-.64-4.56c0-.08-1.06-8.46,9-15.33l1-.69.45-1.13A7.05,7.05,0,0,1,57,35.09a4.67,4.67,0,0,0,0,.5l1.18,5.68A3.29,3.29,0,0,0,61.39,44H62v3.35a6,6,0,1,0,4,0V44h.62a3.29,3.29,0,0,0,3.13-2.73l1.18-5.68a4.55,4.55,0,0,0,0-.5,7,7,0,0,1,2.55,3.19L74,39.42l1,.69c9.83,6.73,9,15,9,15.33L83.18,60h3.57l.17,3.93Z"/></g><g id="SvgjsG1332" featureKey="textGroupContainer" transform="matrix(1,0,0,1,318,0)" fill="#fff"><rect xmlns="http://www.w3.org/2000/svg" y="0" height="1" width="1" opacity="0"/><rect xmlns="http://www.w3.org/2000/svg" y="0" x="-235" width="3" height="182"/></g><g id="SvgjsG1333" featureKey="nameFeature-0" transform="matrix(2.784867735142659,0,0,2.784867735142659,100.91026722912757,-11.391408919302108)" fill="#fff"><path d="M10.76 22.88 c-0.04 -1.28 5.32 -0.88 4.96 1.8 c-0.36 2.88 -2.48 9.72 -1.28 12.4 c0.68 1.48 2.72 0.08 4.16 -4.84 c0 -0.04 1.64 0.24 1.44 1.04 c-1 3.6 -2.36 5.56 -4.24 6.32 c-2.16 0.88 -4.88 0.12 -5.88 -2.12 c-0.2 -0.4 -0.32 -0.92 -0.44 -1.44 c-0.52 1.08 -1.12 2 -1.8 2.72 c-0.36 0.4 -0.76 0.68 -1.2 0.84 c-2.16 0.88 -4.84 0.12 -5.88 -2.12 c-1.68 -3.68 0.56 -13.16 4.2 -14.96 l0.36 -0.12 c1.16 -0.4 3.64 -0.32 4.96 1.16 c0.2 0.2 0.36 0.44 0.52 0.72 c0.08 -0.56 0.12 -1 0.12 -1.4 l0 0 z M7.24 36.56 c2 -4.28 2.76 -8.48 2.36 -10.68 c-0.4 -2.28 -1.96 -1.52 -2.76 0.28 c-1.48 3.16 -2.8 8.48 -1.68 10.92 c0.52 1.24 1.28 0.8 2.08 -0.52 z M24.104000000000003 37.2 l0 0 c0.52 1.24 1.28 0.76 2.08 -0.56 c2 -4.28 2.76 -8.44 2.36 -10.68 s-1.96 -1.52 -2.76 0.28 c-1.48 3.2 -2.8 8.48 -1.68 10.96 z M37.824 33.36 c-1.16 3.32 -3.88 5.32 -5.96 5.88 c-0.6 4.24 -1.04 8.84 -0.84 13.04 c0.04 1.16 -5.36 1.72 -5.12 -1.84 c0.24 -3.32 0.92 -7.96 1.64 -12.76 c-0.28 0.44 -0.6 0.84 -0.92 1.16 c-0.36 0.4 -0.76 0.72 -1.2 0.88 c-2.16 0.88 -4.84 0.12 -5.88 -2.12 c-1.68 -3.72 0.56 -13.2 4.2 -14.96 l0.36 -0.12 c1.16 -0.4 3.64 -0.36 4.96 1.12 l0.36 0.48 c0.04 -0.4 0.08 -0.76 0.12 -1.16 c0.12 -1.28 5.4 -0.84 4.96 1.84 c-0.28 1.84 -1.48 6.72 -2.36 12.36 c1.16 -0.2 3.6 -2.08 4.28 -4.88 c0.04 -0.2 1.6 0.56 1.4 1.08 z M48.568000000000005 34.56 c0.08 0.72 0.08 1.36 -0.04 1.96 c1.16 -0.8 2.48 -2.32 2.92 -4.24 c0.04 -0.2 1.64 0.56 1.44 1.08 c-0.8 2.2 -2.2 3.76 -3.68 4.8 c-2.08 1.4 -5.08 2.76 -7.48 1.44 c-1.48 -0.8 -2.48 -2.44 -2.16 -4.96 c0.16 -1.24 2.16 -1.36 1.96 -0.48 c-1 4.16 2.04 5.24 2.28 2.88 c0.36 -3.48 -3.32 -7.72 -2.16 -12.08 c-0.84 2.36 -2.2 5.92 -3.08 8.4 c-0.64 1.76 -1.72 -0.36 -1.6 -0.68 c1.48 -3.84 3.48 -9.36 4.28 -11.4 c0.84 -2.08 7 1.2 6.16 2.68 c-2.16 4.16 0.72 6.52 1.16 10.6 z M62.552 22.88 c-0.04 -1.28 5.32 -0.88 4.96 1.8 c-0.36 2.88 -2.48 9.72 -1.28 12.4 c0.68 1.48 2.72 0.08 4.16 -4.84 c0 -0.04 1.64 0.24 1.44 1.04 c-1 3.6 -2.36 5.56 -4.24 6.32 c-2.16 0.88 -4.88 0.12 -5.88 -2.12 c-0.2 -0.4 -0.32 -0.92 -0.44 -1.44 c-0.52 1.08 -1.12 2 -1.8 2.72 c-0.36 0.4 -0.76 0.68 -1.2 0.84 c-2.16 0.88 -4.84 0.12 -5.88 -2.12 c-1.68 -3.68 0.56 -13.16 4.2 -14.96 l0.36 -0.12 c1.16 -0.4 3.64 -0.32 4.96 1.16 c0.2 0.2 0.36 0.44 0.52 0.72 c0.08 -0.56 0.12 -1 0.12 -1.4 l0 0 z M59.032000000000004 36.56 c2 -4.28 2.76 -8.48 2.36 -10.68 c-0.4 -2.28 -1.96 -1.52 -2.76 0.28 c-1.48 3.16 -2.8 8.48 -1.68 10.92 c0.52 1.24 1.28 0.8 2.08 -0.52 z"/></g>
			</g>
		</svg>
	